<svg xmlns="http://www.w3.org/2000/svg" viewBox="0 0 27.5 24.86"><g id="Calque_2" data-name="Calque 2"><g id="Calque_2-2" data-name="Calque 2"><path d="M12.88,24.86c-1.71-.18-2.58-1.53-3.63-2.6C7.08,20.05,5,17.81,2.81,15.59A9.27,9.27,0,0,1,.08,9.88c0-.07,0-.16-.08-.2V8.48c.11-.11.08-.25.09-.39a8.43,8.43,0,0,1,.7-2.6A9.45,9.45,0,0,1,13.25.8a.64.64,0,0,0,.6,0A9.17,9.17,0,0,1,19.92.49,9,9,0,0,1,25.46,14c-.24.4-.54.76-.84,1.18l1,.24c.32.08.62.18.69.57a.71.71,0,0,1-.41.79c-.5.35-1,.73-1.49,1.07-.24.16-.23.24,0,.41.82.6,1.61,1.23,2.42,1.83a2.46,2.46,0,0,1,.67.73v.09A11.73,11.73,0,0,1,26,23a.59.59,0,0,1-.86.13l-.45-.33L22,20.8c-.27.74-.53,1.44-.78,2.14a.69.69,0,0,1-.59.51.66.66,0,0,1-.63-.3,4.1,4.1,0,0,1-.23-.4l-1.09-1.93c-.86.82-1.68,1.57-2.48,2.36a4.91,4.91,0,0,1-2.8,1.68Zm-11-15.6A7.56,7.56,0,0,0,4,14.58c2.4,2.54,4.84,5,7.26,7.55a2.62,2.62,0,0,0,3.79.1c.87-.82,1.72-1.66,2.6-2.46.25-.23.24-.39.08-.66-1-1.67-1.89-3.36-2.84-5-.17-.31-.29-.61,0-.93s.57-.27.92-.18l6.76,1.71c.2.05.36.1.53-.09A7.67,7.67,0,0,0,21.92,3.23a7.54,7.54,0,0,0-7.44-.73,2.11,2.11,0,0,1-1.79,0,7.83,7.83,0,0,0-3.82-.85A7.75,7.75,0,0,0,1.89,9.26ZM16,13.69c-.18-.06-.28,0-.34.05s0,.29.06.43l4.61,8.23c.08.13.14.29.34.26s.2-.17.25-.31l.69-1.92c.16-.43.21-.44.59-.15.89.68,2.06,1.51,2.94,2.2.26.2.43.21.63-.07a12.68,12.68,0,0,1,.9-1.18c.27-.31.22-.51-.1-.75-.9-.65-2-1.5-2.93-2.16-.33-.23-.29-.36,0-.57.54-.36,1.07-.75,1.59-1.13.15-.1.37-.17.32-.4S25.27,16,25.1,16L19.21,14.5Z"/></g></g></svg>