<?xml version="1.0" encoding="utf-8"?>
<!-- Generator: Adobe Illustrator 23.0.4, SVG Export Plug-In . SVG Version: 6.00 Build 0)  -->
<svg version="1.1" xmlns="http://www.w3.org/2000/svg" xmlns:xlink="http://www.w3.org/1999/xlink" x="0px" y="0px"
	 viewBox="0 0 500 500" style="enable-background:new 0 0 500 500;" xml:space="preserve">
<style type="text/css">
	.st0{fill:none;stroke:#0A0202;stroke-width:18;stroke-miterlimit:10;}
	.st1{fill:none;stroke:#000000;stroke-width:12;stroke-miterlimit:10;}
	.st2{fill:#F9F7F7;stroke:#000000;stroke-width:18;stroke-miterlimit:10;}
	.st3{fill:none;stroke:#000000;stroke-width:18;stroke-miterlimit:10;}
	.st4{stroke:#000000;stroke-width:0.75;stroke-miterlimit:10;}
	.st5{stroke:#000000;stroke-width:12;stroke-miterlimit:10;}
	.st6{fill:none;stroke:#FFFFFF;stroke-width:32;stroke-miterlimit:10;}
	.st7{fill:#FFFFFF;}
	.st8{fill:#0A0202;}
	.st9{fill:none;stroke:#0A0202;stroke-width:12;stroke-miterlimit:10;}
	.st10{fill:#F4F4F4;stroke:#0A0202;stroke-width:18;stroke-miterlimit:10;}
	.st11{stroke:#F9F9F9;stroke-width:12;stroke-miterlimit:10;}
	.st12{fill:#070101;}
	.st13{fill:#070000;}
	.st14{fill:#F7F5F5;stroke:#070101;stroke-width:80;stroke-miterlimit:10;}
	.st15{fill:#F7F5F5;}
	.st16{fill:none;stroke:#0A0202;stroke-width:40;stroke-miterlimit:10;}
	.st17{fill:#F9F4F4;stroke:#0A0202;stroke-width:12;stroke-miterlimit:10;}
	.st18{fill:#050505;}
	.st19{fill:none;stroke:#050505;stroke-width:18;stroke-miterlimit:10;}
	.st20{fill:#020202;}
	.st21{fill:#010101;}
	.st22{fill:#231F20;}
</style>
<g id="Calque_2">
</g>
<g id="Calque_1">
	<rect x="-1546.5" y="665" class="st0" width="388.6" height="278.2"/>
	<path class="st1" d="M-2284.4,992.7"/>
	<path d="M-2684.3,920.1C-2684.6,919.9-2684.1,920.4-2684.3,920.1c-24.4-27.2-31.2-44.2-31.2-78.5c0-74.3,75.5-134.6,168.6-134.6
		c93.1,0,168.6,60.3,168.6,134.6s-75.5,134.6-168.6,134.6c-21.7,0-42.5-3.3-61.6-9.3c-20.6,9.4-91,41.2-103.6,39
		c0,0,18.5-20.3,31.2-42.5C-2672.5,948.8-2679.7,925.8-2684.3,920.1L-2684.3,920.1z"/>
	<path class="st2" d="M-2307.6,844.2C-2307.3,844-2307.9,844.4-2307.6,844.2c27-22.2,35.9-37.3,41.2-70
		c11.5-70.7-49.6-139.5-136.4-153.6c-86.8-14.1-166.5,31.8-178,102.6c-11.5,70.7,49.6,139.5,136.4,153.6c20.3,3.3,40.1,3.3,58.8,0.5
		c17.7,12.1,78.5,52.9,90.5,52.8c0,0-14.1-22.1-22.5-45.1C-2323.1,869.7-2312.8,848.9-2307.6,844.2L-2307.6,844.2z"/>
	<path class="st1" d="M-2284.4,408.7"/>
	<path class="st1" d="M-5539.8-144.5"/>
	<path class="st1" d="M-5088.2,407.1"/>
	<path d="M-5108.3,192.8c0-91-67.1-164.8-149.8-164.8c-82.8,0-149.8,73.8-149.8,164.8c0,24.5,4.8,47.7,13.5,68.6
		c1.3,3.2,2.7,6.3,4.2,9.3c0,10.5,132.1,202.3,132.1,202.3s132.1-193.3,137.6-214.8h0C-5112.6,238.2-5108.3,216.1-5108.3,192.8z"/>
	<path class="st1" d="M-4476.6,424.5"/>
	<path d="M-4727.8,212.5h164c0,0,20.3,2.9,21.8,24.7v225c0,0-2.9,24.7-16,26.1c-13.1,1.5-300.5,0-300.5,0s-18.9-1.5-17.4-20.3
		l2.9-243.9c0,0,2.6-11.6,18.9-11.6C-4839.6,212.5-4727.8,212.5-4727.8,212.5z"/>
	<path class="st3" d="M-4829.7,212.5l3.1-100.2c0,0,17.4-85.6,104.5-90c0,0,121.9-23.2,135,121.9v68.2"/>
	<path class="st4" d="M-3563.3,497.7l-2.6-218.3h80.2l5.3-90.8h-81.5V111c0,0,1.3-28.9,77.6-19.7l1.3-73.7
		c0,0-194.7-57.9-172.3,168.3l-75,2.6l-1.3,86.8l75,1.3l1.3,222.3L-3563.3,497.7z"/>
	<path class="st3" d="M-5668.6,115.1c-82.2-134.7-252.8-82.4-252.8-82.4c-143.3,59.4-126.4,199.9-126.4,199.9"/>
	<path class="st3" d="M-6038.6,346.3c55.1,147.5,237.6,119.6,237.6,119.6c156.5-39,168.3-183,168.3-183"/>
	<polyline points="-6048.7,340.8 -5935.9,364.8 -6055,442.3 	"/>
	<polyline points="-5650.3,185.6 -5739.8,126.1 -5596.6,97.1 	"/>
	<path class="st5" d="M-3287,135.2c0,0,2.7-119.4,109.8-122.2h281.4c0,0,83.7,1.4,92,102.9l-8.2,291c0,0-5.5,72.7-70,85.1h-325.3
		c0,0-76.9-6.9-79.6-79.6V135.2z"/>
	<circle class="st6" cx="-3041.3" cy="257.3" r="125.3"/>
	<circle class="st7" cx="-2894.3" cy="98.6" r="25.3"/>
	<path class="st8" d="M-1975.9,15.7c0,0,58.9,74.4,54.4,86.2s-4.6,12-11.4,17.6c-6.8,5.6-50,21.7-51.9,31.7c-1.9,10-1,29.7,2.9,39.6
		c3.9,9.9,90.3,147.3,121.6,152c0,0,20.4,1.5,29.8-11.7c0,0,28.9-25.6,36.4-28.8c7.3-3.1,90.1,65.1,91.6,75.7
		c1.5,10.6-9.1,30.5-16.1,37.2c-7,6.7-45.6,35.1-67.2,33.4c0,0-59.8,0.3-82.2-15.3c-22.4-15.7-220.2-168.7-204.2-358.8
		c0,0,2.4-13,6.7-25.1c2.5-7.3,5.7-14.2,9.4-17.8C-2056.1,31.6-2028.6,5.3-1975.9,15.7z"/>
	<path class="st9" d="M-2013.6,31.6c0,0,52.7,68.5,48,80.8s-10.3,6.9-17.2,12.8c-6.9,5.9-38.7,37.3-40.6,47.7
		c-1.9,10.4-1.1,31,2.8,41.3c3.9,10.3,90.7,153,122.4,157.8c0,0,20.7,1.5,30.2-12.3c0,0,34.2-8.1,41.8-11.5
		c7.5-3.3,86.3,48.6,87.7,59.7c1.4,11.1-11.7,23.8-18.8,30.8c-7.1,7.1-44.2,44.9-66,43.2c0,0-60.6,0.7-83.2-15.5
		c-22.6-16.2-222.2-174.6-205-372.9c0,0,2.5-13.6,6.9-26.2c2.6-7.6,5.9-14.8,9.6-18.6C-2095,48.6-2066.9,21-2013.6,31.6z"/>
	<rect x="-1608.7" y="725.4" class="st10" width="388.6" height="278.2"/>
	<polygon class="st8" points="-1617,79.3 -1156.1,80.3 -1381.3,256.6 	"/>
	<rect x="-1610.7" y="76.1" class="st0" width="454.7" height="325.6"/>
	<path class="st11" d="M-4290.3,90.1"/>
	<path class="st1" d="M-5034.2-162.9"/>
	<g>
		<circle class="st12" cx="-4711.9" cy="330.9" r="42.4"/>
	</g>
	<path class="st1" d="M-4442.6-145.5"/>
	<g>
		<g>
			<path class="st13" d="M-3386.9-1311.8c1.9,0,1.9-3,0-3C-3388.8-1314.8-3388.8-1311.8-3386.9-1311.8L-3386.9-1311.8z"/>
		</g>
	</g>
	<path class="st1" d="M-3633-409"/>
	<path class="st1" d="M-3606.5-398"/>
	<path class="st8" d="M-37.9,194.6c0-0.3,0.1-0.5,0.3-0.7c-0.2-3.3-0.3-6.5-0.3-9.8c-0.8-4.7-2.2-9.2-4.7-13.1
		c-0.1-0.2-0.1-0.3-0.1-0.5C-63.9,130.7-122,56-122,56h-313.4l-80.7,124.3c0,0,0,0.1,0,0.1c0,0,0,0.1,0,0.1
		c-0.4,2.5-0.9,4.9-1.2,7.4c0,0.2-0.1,0.4-0.2,0.5c-0.1,2.6-0.3,5.4-0.3,8.1c0.9,6,2,11.9,4.8,17.3c0,0,0,0.1,0,0.1
		c44.1,87.4,113.3-2.1,113.3-2.1c55.9,86.4,125.4,1.7,125.4,1.7c64.4,81.3,123.7-6.8,123.7-6.8c68.7,87,100.3,18.5,112-7
		C-38.3,198.1-37.8,196.4-37.9,194.6z"/>
	<circle class="st14" cx="-4710.2" cy="332.4" r="71.6"/>
	<g>
		<path class="st15" d="M-5259.9,219.8c-31.8,0-57.6-25.8-57.6-57.6c0-31.8,25.8-57.6,57.6-57.6c31.8,0,57.6,25.8,57.6,57.6
			C-5202.3,194-5228.1,219.8-5259.9,219.8z"/>
		<path class="st12" d="M-5259.9,113.6c26.8,0,48.6,21.8,48.6,48.6s-21.8,48.6-48.6,48.6s-48.6-21.8-48.6-48.6
			S-5286.7,113.6-5259.9,113.6 M-5259.9,95.6c-36.8,0-66.6,29.8-66.6,66.6s29.8,66.6,66.6,66.6c36.8,0,66.6-29.8,66.6-66.6
			S-5223.1,95.6-5259.9,95.6L-5259.9,95.6z"/>
	</g>
	<polyline class="st0" points="382,293.5 382,442 93.4,442 93.4,145 196.3,145 	"/>
	<polyline class="st0" points="-132,294.5 -132,443 -420.6,443 -420.6,146 -317.7,146 	"/>
	<polyline class="st16" points="158,220 234,327 411,133 	"/>
	<path class="st8" d="M-905.9,14.5h13.8c0,0,63.8,100.4,129-0.5h17.8c0,0-7.4,119.2-28.2,141.9c0,0,121.1,233.9,102.3,279.4
		c0,0-19.8,12.9-20.8,14.8s0,14.8,0,14.8s-28.7,5.9-29.7,9.9c-1,4-34.6,1-38.6,4.9c-4,4-19.8,1-23.7,4.9c-4,4-36.6,1-39.6,5.9
		c-3,4.9-64.3,2-65.3,0c-1-2-14.8-12.9-17.8-8.9c0,0-21.8-6.9-23.7-9.9c-2-3-21.8-9.9-23.7-4.9c-2,4.9-32.6-22.7-36.6-21.8
		c-4,1,76.6-265.5,109.3-288.3C-881.2,156.9-917.3,65.4-905.9,14.5z"/>
	<path class="st17" d="M-881,155h108c0,0,22-32,28-141h-18c0,0-55,101-129,0h-14C-906,14-917,71-881,155z"/>
	<path class="st18" d="M-3572.2,857.5c0,0-94.7-247.5,208.8-256.6C-3363.4,601-3295.5,867.6-3572.2,857.5z"/>
	<path class="st18" d="M-3580.5,927.5c0,0-247.4,94.9-256.8-208.6C-3837.3,718.9-3570.7,650.8-3580.5,927.5z"/>
	<line class="st19" x1="-3589.8" y1="916.8" x2="-3590.7" y2="1070.1"/>
	<path class="st20" d="M-4110,988c0,0,76,89,104,77c0,0,9.5-5.8,8-11c-3-10-98-57-102-71S-4110,988-4110,988z"/>
	<path class="st20" d="M-4110,988c0,0,106-29,105-146c0,0-7-78-77-146c0,0-46-58,43-98c0,0-102.5,39.5-131.5,110.5
		C-4170.5,708.5-4235.5,859.5-4110,988z"/>
	<path class="st20" d="M-4053,598c0,0-142,34-198,119c0,0-154,225,109,271C-4142,988-4330.5,713.5-4053,598z"/>
	<path class="st20" d="M-4788.2,1045.1c0,0-270.3-110.7,15.8-447.1c0,0,115,102.1,133.7,191.2c0,0-102.8,55.3-108.5,91.3
		l-15.8-143.8L-4788.2,1045.1z"/>
	<path class="st20" d="M-4745,1029.3c0,0-64.7-214.2,247.3-217.1c0,0-5,321.3-217.8,246.5l107.8-136.6L-4745,1029.3z"/>
	<polygon class="st21" points="-1614,725.4 -1220.2,726.3 -1412.6,876.9 	"/>
	<rect x="-984" y="718" width="111" height="312"/>
	<rect x="-794" y="718" width="116" height="312"/>
	<g>
		<g>
			<path d="M-822,710.3c0.8-14.9,5.4-29.4,13.3-42.1c7.2-11.7,18-24.3,32-27.5c12.6-3,25,5.3,22.7,19c-2.4,13.9-16.2,25.1-27.4,32.1
				c-14.1,8.7-30.2,13.4-46.8,13.5c-9.6,0-9.7,15,0,15c18.8-0.1,37.5-5.3,53.6-15.1c15.1-9.2,31.9-24,35.2-42.3
				c3.4-19.5-9.3-35.6-28.8-37.6c-18.8-1.9-35.2,11.2-46.2,25.1c-13.6,17.2-21.4,38-22.6,59.9C-837.6,720-822.6,719.9-822,710.3
				L-822,710.3z"/>
		</g>
	</g>
	<g>
		<g>
			<path d="M-823.1,710.4c-3.1-18-9.7-35.5-19.6-50.9c-9.2-14.4-22.6-27.5-40.8-28c-17.3-0.4-30.2,12.8-32,29.4
				c-1.9,17.4,9.6,32.9,23.5,41.9c17.5,11.3,39.9,15.7,60.3,17.9c4,0.4,7.5-3.8,7.5-7.5c0-4.4-3.5-7.1-7.5-7.5
				c-18-1.9-38.1-6.1-53.4-16.3c-11.6-7.8-22.1-25.2-11-37.9c12-13.7,30.8,1.4,38.2,12.1c10.6,15.2,17.2,32.6,20.3,50.7
				C-835.9,723.9-821.4,719.9-823.1,710.4L-823.1,710.4z"/>
		</g>
	</g>
	<path class="st3" d="M-5140.5,1000.4c-34.9,25.5-77.9,40.6-124.5,40.6c-116.5,0-211-94.5-211-211s94.5-211,211-211
		c65.1,0,123.4,29.5,162.1,75.9L-5193,719"/>
	<line class="st3" x1="-5099" y1="600" x2="-5099" y2="697"/>
	<line class="st0" x1="174.4" y1="771.4" x2="5.2" y2="771.4"/>
	<path class="st0" d="M180,710.9H50.8H180z"/>
	<polyline class="st0" points="93,834.5 93,953 382.4,953 382.4,656 171.2,656 	"/>
	<g>
		<g>
			<path d="M-217.4,775.2c-3.2,0-5.8-2.5-5.8-5.5v-54.8c0-29.7-25.3-54-56.4-54s-56.5,24.3-56.5,54v54.8c0,3.1-2.6,5.5-5.7,5.5
				c-3.2,0-5.8-2.5-5.8-5.5v-54.8c0-35.8,30.5-65,68-65c37.4,0,68,29.2,68,65v54.8C-211.6,772.7-214.2,775.2-217.4,775.2
				L-217.4,775.2z M-217.4,775.2"/>
			<path class="st22" d="M-217.4,775.4c-3.3,0-6.1-2.6-6.1-5.8v-54.8c0-29.6-25.2-53.8-56.2-53.8c-31,0-56.3,24.1-56.3,53.8v54.8
				c0,3.2-2.7,5.8-6,5.8c-3.3,0-6-2.6-6-5.8v-54.8c0-36,30.6-65.3,68.3-65.3c37.6,0,68.2,29.3,68.2,65.3v54.8
				C-211.4,772.8-214.1,775.4-217.4,775.4z M-279.6,660.6c31.3,0,56.7,24.3,56.7,54.3v54.8c0,2.9,2.5,5.3,5.6,5.3
				c3,0,5.5-2.4,5.5-5.3v-54.8c0-35.7-30.4-64.8-67.7-64.8c-37.4,0-67.8,29.1-67.8,64.8v54.8c0,2.9,2.5,5.3,5.5,5.3
				c3,0,5.5-2.4,5.5-5.3v-54.8C-336.4,685-310.9,660.6-279.6,660.6z"/>
		</g>
	</g>
	<polyline class="st0" points="-411,860.5 -411,979 -121.6,979 -121.6,737 -382.8,737 	"/>
	<path d="M-4122.7,4c-128.5,0-193.4,96.8-193.4,177.6c0,48.9,17.6,92.4,55.4,108.6c6.2,2.7,11.8,0.1,13.5-7.1
		c1.2-5,4.2-17.6,5.5-22.8c1.8-7.1,1.1-9.6-3.9-15.8c-10.9-13.5-17.9-31-17.9-55.7c0-71.8,51.2-136.2,133.2-136.2
		c72.6,0,112.6,46.7,112.6,108.9c0,82-34.5,151.2-85.8,151.2c-28.3,0-49.5-24.6-42.7-54.8c8.1-36,23.9-74.9,23.9-100.9
		c0-23.3-11.9-42.7-36.5-42.7c-28.9,0-52.2,31.5-52.2,73.6c0,26.8,8.6,45,8.6,45s-29.6,131.8-34.8,154.9c-10.3,46-1.6,102.3-0.8,108
		c0.4,3.4,4.6,4.2,6.4,1.7c2.7-3.7,37.1-48.4,48.8-93.1c3.3-12.6,19-78.1,19-78.1c9.4,18.9,36.9,35.4,66.1,35.4
		c87,0,146-83.3,146-194.8C-3951.5,82.6-4019.5,4-4122.7,4z"/>
	<g>
	</g>
	<g>
	</g>
	<g>
	</g>
	<g>
	</g>
	<g>
	</g>
	<g>
	</g>
	<g>
	</g>
	<g>
	</g>
	<g>
	</g>
	<g>
	</g>
	<g>
	</g>
	<g>
	</g>
	<g>
	</g>
	<g>
	</g>
	<g>
	</g>
</g>
</svg>
