<svg id="Layer_1" data-name="Layer 1" xmlns="http://www.w3.org/2000/svg" xmlns:xlink="http://www.w3.org/1999/xlink" viewBox="0 0 740.5 831.65"><defs><style>.cls-1,.cls-6{fill:none;}.cls-2{clip-path:url(#clip-path);}.cls-3{opacity:0.57;}.cls-4{clip-path:url(#clip-path-3);}.cls-5{font-size:24px;font-family:BrandonGrotesque-Medium, Brandon Grotesque;font-weight:500;}.cls-6{stroke:#000;stroke-miterlimit:10;stroke-width:0.5px;}.cls-7{font-size:13px;}.cls-12,.cls-7{font-family:CenturyGothic, Century Gothic;}.cls-8{clip-path:url(#clip-path-4);}.cls-9{clip-path:url(#clip-path-5);}.cls-10{clip-path:url(#clip-path-6);}.cls-11{clip-path:url(#clip-path-7);}.cls-12{font-size:16px;}.cls-13{letter-spacing:-0.001em;}.cls-14{letter-spacing:0em;}.cls-15{letter-spacing:-0.004em;}.cls-16{letter-spacing:0.026em;}</style><clipPath id="clip-path" transform="translate(-25.75 -47.6)"><rect class="cls-1" width="792" height="930"/></clipPath><clipPath id="clip-path-3" transform="translate(-25.75 -47.6)"><rect class="cls-1" x="277.032" y="47.601" width="237.933" height="29.519"/></clipPath><clipPath id="clip-path-4" transform="translate(-25.75 -47.6)"><rect class="cls-1" x="258" y="220" width="40" height="21"/></clipPath><clipPath id="clip-path-5" transform="translate(-25.75 -47.6)"><rect class="cls-1" x="356" y="220" width="40" height="21"/></clipPath><clipPath id="clip-path-6" transform="translate(-25.75 -47.6)"><rect class="cls-1" x="571" y="262" width="40" height="21"/></clipPath><clipPath id="clip-path-7" transform="translate(-25.75 -47.6)"><rect class="cls-1" x="686" y="262" width="40.001" height="21"/></clipPath></defs><title>MajeUS_Size_Guide</title><g class="cls-2"><g class="cls-2"><g class="cls-3"><g class="cls-4"><text class="cls-5" transform="translate(251.282 20.4)">WHAT SIZE ARE YOU?</text></g></g></g><rect class="cls-6" x="0.25" y="113.4" width="740" height="257"/><line class="cls-6" x1="201.75" y1="113.4" x2="201.75" y2="370.4"/><line class="cls-6" x1="299.75" y1="113.4" x2="299.75" y2="370.4"/><line class="cls-6" x1="401.75" y1="113.4" x2="401.75" y2="370.4"/><line class="cls-6" x1="510.75" y1="113.4" x2="510.75" y2="370.4"/><line class="cls-6" x1="618.75" y1="113.4" x2="618.75" y2="370.4"/><line class="cls-6" x1="0.25" y1="158.9" x2="740.25" y2="158.9"/><line class="cls-6" x1="0.25" y1="201.9" x2="740.25" y2="201.9"/><line class="cls-6" x1="0.25" y1="243.9" x2="740.25" y2="243.9"/><line class="cls-6" x1="0.25" y1="284.9" x2="740.25" y2="284.9"/><line class="cls-6" x1="0.25" y1="326.9" x2="740.25" y2="326.9"/><rect class="cls-6" x="0.25" y="408.4" width="619" height="423"/><line class="cls-6" x1="201.75" y1="408.4" x2="201.75" y2="831.4"/><line class="cls-6" x1="299.75" y1="408.4" x2="299.75" y2="831.4"/><line class="cls-6" x1="401.75" y1="408.4" x2="401.75" y2="831.4"/><line class="cls-6" x1="510.75" y1="408.4" x2="510.75" y2="831.4"/><line class="cls-6" x1="0.25" y1="453.9" x2="619.25" y2="453.9"/><line class="cls-6" x1="0.25" y1="496.9" x2="619.25" y2="496.9"/><line class="cls-6" x1="0.25" y1="538.9" x2="619.25" y2="538.9"/><line class="cls-6" x1="0.25" y1="579.9" x2="619.25" y2="579.9"/><line class="cls-6" x1="0.25" y1="621.9" x2="619.25" y2="621.9"/><line class="cls-6" x1="0.25" y1="663.4" x2="619.25" y2="663.4"/><line class="cls-6" x1="0.25" y1="705.4" x2="619.25" y2="705.4"/><line class="cls-6" x1="0.25" y1="747.4" x2="619.25" y2="747.4"/><line class="cls-6" x1="0.25" y1="789.4" x2="619.25" y2="789.4"/><text class="cls-7" transform="translate(16.25 141.4)">SIZE MATCH</text><text class="cls-7" transform="translate(217.256 141.4)">34 - XS - 24</text><text class="cls-7" transform="translate(311.259 141.4)">36 - S - 26 - 1</text><text class="cls-7" transform="translate(414.258 141.4)">38 - M - 28 - 2</text><text class="cls-7" transform="translate(523.263 141.4)">40 - L - 30 - 3</text><text class="cls-7" transform="translate(636.259 141.4)">42 - XL - 32 - 4</text><text class="cls-7" transform="translate(16.263 185.405)">Bust circumference</text><g class="cls-8"><text class="cls-7" transform="translate(232.25 185.4)">31.5 in</text></g><g class="cls-9"><text class="cls-7" transform="translate(330.25 185.4)">33 in</text></g><text class="cls-7" transform="translate(436.25 185.4)">34.5 in</text><text class="cls-7" transform="translate(545.255 185.4)">36 in</text><text class="cls-7" transform="translate(660.253 185.4)">37.5 in</text><text class="cls-7" transform="translate(16.259 227.403)">Waist circumference</text><text class="cls-7" transform="translate(232.254 227.403)">23.5 in</text><text class="cls-7" transform="translate(330.248 227.403)">25 in</text><text class="cls-7" transform="translate(436.25 227.403)">26.5 in</text><g class="cls-10"><text class="cls-7" transform="translate(545.25 227.4)">28 in</text></g><g class="cls-11"><text class="cls-7" transform="translate(660.25 227.4)">29.5 in</text></g><text class="cls-7" transform="translate(16.25 269.4)">Low Hip circumference</text><text class="cls-7" transform="translate(232.245 269.4)">34 in</text><text class="cls-7" transform="translate(330.239 269.4)">35.5 in</text><text class="cls-7" transform="translate(436.241 269.4)">37 in</text><text class="cls-7" transform="translate(545.246 269.4)">38.5</text><text class="cls-7" transform="translate(661.252 269.4)">40 in</text><text class="cls-7" transform="translate(16.25 311.403)">Inseam leg length</text><text class="cls-7" transform="translate(232.245 311.403)">30 in</text><text class="cls-7" transform="translate(330.239 311.403)">31.5 in</text><text class="cls-7" transform="translate(436.241 311.403)">31.5 in</text><text class="cls-7" transform="translate(545.246 311.403)">31.5 in</text><text class="cls-7" transform="translate(660.244 311.403)">31.5 in</text><text class="cls-7" transform="translate(16.25 353.406)">Leg length</text><text class="cls-7" transform="translate(232.249 353.406)">41.5 in</text><text class="cls-7" transform="translate(436.245 353.406)">42 in</text><text class="cls-7" transform="translate(330.248 353.406)">41.7 in</text><text class="cls-7" transform="translate(545.242 353.406)">42.2 in</text><text class="cls-7" transform="translate(662.248 353.406)">42.5 in</text><text class="cls-7" transform="translate(16.25 435.41)">FOOT LENGTH</text><text class="cls-7" transform="translate(224.081 435.41)">FR SIZING</text><text class="cls-7" transform="translate(321.087 435.41)">UK SIZING</text><text class="cls-7" transform="translate(427.688 435.41)">US SIZING</text><text class="cls-7" transform="translate(540.943 435.41)">IT SIZING</text><text class="cls-7" transform="translate(16.25 480.416)">8.8 in</text><text class="cls-7" transform="translate(242.255 480.416)">35</text><text class="cls-7" transform="translate(341.25 480.416)">2,5</text><text class="cls-7" transform="translate(446.244 480.416)">4 - 4.5</text><text class="cls-7" transform="translate(558.246 480.416)">34</text><text class="cls-7" transform="translate(16.25 523.419)">9 in</text><text class="cls-7" transform="translate(242.255 523.419)">36</text><text class="cls-7" transform="translate(341.25 523.419)">3,5</text><text class="cls-7" transform="translate(446.245 523.419)">5 - 5.5</text><text class="cls-7" transform="translate(559.247 523.419)">35</text><text class="cls-7" transform="translate(16.25 564.421)">9.3 in</text><text class="cls-7" transform="translate(242.255 564.421)">37</text><text class="cls-7" transform="translate(347.256 564.421)">4</text><text class="cls-7" transform="translate(446.252 564.421)">6 - 6.5</text><text class="cls-7" transform="translate(559.247 564.421)">36</text><text class="cls-7" transform="translate(16.25 605.424)">9.6 in</text><text class="cls-7" transform="translate(242.255 605.424)">38</text><text class="cls-7" transform="translate(346.255 605.424)">5</text><text class="cls-7" transform="translate(446.252 605.424)">7 - 7.5</text><text class="cls-7" transform="translate(559.247 605.424)">37</text><text class="cls-7" transform="translate(16.25 648.428)">9.8 in</text><text class="cls-7" transform="translate(242.255 648.428)">39</text><text class="cls-7" transform="translate(341.25 648.428)">5,5</text><text class="cls-7" transform="translate(446.252 648.428)">8 - 8.5</text><text class="cls-7" transform="translate(559.247 648.428)">38</text><text class="cls-7" transform="translate(16.25 689.43)">10.1 in</text><text class="cls-7" transform="translate(242.255 689.43)">40</text><text class="cls-7" transform="translate(341.25 689.43)">6,5</text><text class="cls-7" transform="translate(446.245 689.43)">9 - 9.5</text><text class="cls-7" transform="translate(559.247 689.43)">39</text><text class="cls-7" transform="translate(16.25 731.433)">10.4 in</text><text class="cls-7" transform="translate(242.255 731.433)">41</text><text class="cls-7" transform="translate(341.25 731.433)">7,5</text><text class="cls-7" transform="translate(439.245 731.433)">10 - 10.5</text><text class="cls-7" transform="translate(559.247 731.433)">40</text><text class="cls-7" transform="translate(16.25 773.436)">10.6 in</text><text class="cls-7" transform="translate(242.255 773.436)">42</text><text class="cls-7" transform="translate(346.255 773.436)">8</text><text class="cls-7" transform="translate(439.252 773.436)">11 - 11.5</text><text class="cls-7" transform="translate(559.247 773.436)">41</text><text class="cls-7" transform="translate(16.25 816.44)">10.9 in</text><text class="cls-7" transform="translate(242.255 816.44)">43</text><text class="cls-7" transform="translate(346.255 816.44)">9</text><text class="cls-7" transform="translate(439.261 816.44)">12 - 12.5</text><text class="cls-7" transform="translate(559.26 816.44)">42</text><text class="cls-12" transform="translate(116.197 54.114)">Use the guide below to match <tspan class="cls-13" x="239.953" y="0">y</tspan><tspan class="cls-14" x="248.515" y="0">our measu</tspan><tspan class="cls-15" x="330.234" y="0">r</tspan><tspan x="334.983" y="0">ements to the sizes we </tspan></text><text class="cls-12" transform="translate(116.197 73.314)">use for our ga<tspan class="cls-16" x="106.648" y="0">r</tspan><tspan x="111.877" y="0">ments.</tspan></text></g></svg>