<svg xmlns="http://www.w3.org/2000/svg" viewBox="0 0 21.51 25.01"><g id="Calque_2" data-name="Calque 2"><g id="Calque_2-2" data-name="Calque 2"><path d="M9.12,10.19h0l-5.42-.1a3.08,3.08,0,0,1-.51,0L3,10A3.65,3.65,0,0,1,.88,8.83L.71,8.62.63,8.51a1,1,0,0,1-.15-.28,1.94,1.94,0,0,1-.25-.52l0-.09A3.68,3.68,0,0,1,.78,4.19,3.67,3.67,0,0,1,2.9,2.76,3.79,3.79,0,0,1,5.19.27a3.73,3.73,0,0,1,2.88,0A1.48,1.48,0,0,1,8.4.49l.11.07a1.32,1.32,0,0,1,.35.23l.08.07A3.49,3.49,0,0,1,10,2.41l.05.17a2.46,2.46,0,0,1,.12.59l0,.18c0,.09,0,.18,0,.27L10.07,9.1a1.06,1.06,0,0,1-.13.6A1,1,0,0,1,9.12,10.19ZM3.64,9.08l5.46.11,0-1.93.1-3.62a1.54,1.54,0,0,0,0-.19c0-.07,0-.15,0-.23a2,2,0,0,0-.08-.36l0-.13a2.6,2.6,0,0,0-.75-1.1l-.1-.08-.1-.08a1.22,1.22,0,0,1-.27-.15l-.12-.07A2.69,2.69,0,0,0,5.57,1.2,2.76,2.76,0,0,0,3.85,3.12a.73.73,0,0,1-.62.59A2.71,2.71,0,0,0,1.57,4.8h0a2.72,2.72,0,0,0-.43,2.49,1.38,1.38,0,0,0,.11.28,1.37,1.37,0,0,1,.14.26L1.52,8l.12.16A2.68,2.68,0,0,0,3.08,9l.21,0A2.07,2.07,0,0,0,3.64,9.08Z"/><rect x="14.73" y="7.13" width="1" height="16.35" transform="translate(-6.36 15.25) rotate(-45)"/><path d="M17.59,25a.51.51,0,0,1-.36-.15.5.5,0,0,1,0-.7l3.42-3.42a.5.5,0,0,1,.71,0,.48.48,0,0,1,0,.7l-3.42,3.42A.5.5,0,0,1,17.59,25Z"/><path d="M12.81,20.23a.47.47,0,0,1-.35-.14.5.5,0,0,1,0-.71L15.88,16a.5.5,0,0,1,.71.71l-3.43,3.42A.46.46,0,0,1,12.81,20.23Z"/><path d="M16.11,21.71a.54.54,0,0,1-.36-.14.51.51,0,0,1,0-.71l2.52-2.51a.48.48,0,0,1,.7,0,.5.5,0,0,1,0,.71l-2.51,2.51A.52.52,0,0,1,16.11,21.71Z"/></g></g></svg>