<?xml version="1.0" encoding="utf-8"?>
<!-- Generator: Adobe Illustrator 24.1.0, SVG Export Plug-In . SVG Version: 6.00 Build 0)  -->
<svg version="1.1" xmlns="http://www.w3.org/2000/svg" xmlns:xlink="http://www.w3.org/1999/xlink" x="0px" y="0px"
	 viewBox="0 0 500 500" style="enable-background:new 0 0 500 500;" xml:space="preserve" width="17" height="17">
<style type="text/css">
	.st0{fill:#0E0809;}
	.st1{fill:#010101;}
	.st2{clip-path:url(#SVGID_2_);}
	.st3{clip-path:url(#SVGID_2_);fill:none;}
	.st4{fill:none;}
	.st5{clip-path:url(#SVGID_4_);}
	.st6{clip-path:url(#SVGID_6_);}
	.st7{clip-path:url(#SVGID_8_);}
	.st8{clip-path:url(#SVGID_10_);}
	.st9{clip-path:url(#SVGID_12_);}
	.st10{clip-path:url(#SVGID_14_);}
	.st11{fill:none;stroke:#000000;stroke-width:25;stroke-miterlimit:10;}
	.st12{clip-path:url(#SVGID_16_);}
	.st13{clip-path:url(#SVGID_18_);}
	.st14{clip-path:url(#SVGID_20_);}
	.st15{clip-path:url(#SVGID_22_);}
	.st16{clip-path:url(#SVGID_24_);}
	.st17{clip-path:url(#SVGID_26_);}
	.st18{clip-path:url(#SVGID_28_);}
</style>
<g id="Calque_1">
</g>
<g id="Calque_2">
	<path d="M1025.1-1124.9h-300c-55,0-100-45-100-100v-300c0-55,45-100,100-100h300c55,0,100,45,100,100v300
		C1125.1-1169.9,1080.1-1124.9,1025.1-1124.9z M1039.2-1564.2c-13.8,0-25,11.2-25,25s11.2,25,25,25s25-11.2,25-25
		S1053-1564.2,1039.2-1564.2z M875.1-1524.9c-82.8,0-150,67.2-150,150s67.2,150,150,150s150-67.2,150-150S958-1524.9,875.1-1524.9z"
		/>
	<polygon points="5125,1125 5500,1125 5500,1625 5000,1625 5000,1375 5025,1375 5025,1600 5475,1600 5475,1150 5125,1150 	"/>
	<rect x="4950" y="1200" class="st0" width="175" height="25"/>
	<rect x="4875" y="1275" class="st0" width="250" height="25"/>
	<polygon points="5875,1150 5875,1125 5625,1125 5625,1625 6125,1625 6125,1375 6100,1375 6100,1600 5650,1600 5650,1150 	"/>
	<path d="M980.4-1374.5c0.1-57.3-46.3-104.4-103.9-105c-58.3-0.6-105.5,46.5-106,104c-0.5,58.5,46.7,105.3,103.8,105.9
		C932.9-1268.9,980.5-1316.5,980.4-1374.5z"/>
	<g id="A8PXzW.tif">
		<g>
			<path d="M1382-1375.4c0-29.4,0-58.8,0-88.1c14.7,0,29.4-0.1,44,0.3c4.7,0.1,5.5-1.6,5.6-5.8c0.2-21.2-0.8-42.3,0.7-63.5
				c3.8-54.3,42.2-91.2,96.7-92.2c26.5-0.5,53,0,79.5-0.1c3.9,0,4.7,1.3,4.7,4.9c-0.1,25.4-0.2,50.7,0,76.1c0,4.2-1.4,5-5.2,4.9
				c-15.6-0.2-31.3-0.1-46.9-0.1c-17.9,0-25.7,7.8-25.7,25.9c0,14.7,0.2,29.4-0.1,44.1c-0.1,5,1.6,5.9,6.1,5.8
				c21.9-0.2,43.9-0.1,65.8-0.1c7.7,0,7.5,0,6.7,7.5c-2.7,25-5.3,50-7.7,75c-0.4,4.5-1.7,6.2-6.5,6.1c-19.3-0.2-38.5,0.1-57.8-0.2
				c-5.7-0.1-6.8,1.7-6.8,7c0.2,78.6,0.1,157.1,0.2,235.7c0,5.4-1.1,7.1-6.8,7c-30.1-0.3-60.3-0.3-90.4,0c-5.5,0-7-1.4-7-6.9
				c0.2-78.2,0.1-156.4,0.1-234.6c0-8.9,1.3-7.9-7.8-8.1C1409.9-1375.2,1395.9-1374.2,1382-1375.4z"/>
		</g>
	</g>
	<path class="st1" d="M2136.6-1623.4c-129.4,0-194.7,97.5-194.7,178.8c0,49.2,17.7,93,55.8,109.3c6.2,2.7,11.8,0.1,13.6-7.2
		c1.3-5,4.2-17.7,5.6-23c1.8-7.2,1.1-9.7-3.9-16c-11-13.6-18-31.2-18-56.1c0-72.3,51.5-137.1,134.1-137.1
		c73.2,0,113.3,47,113.3,109.7c0,82.6-34.8,152.2-86.4,152.2c-28.5,0-49.8-24.8-43-55.1c8.2-36.3,24-75.4,24-101.6
		c0-23.4-12-43-36.7-43c-29.1,0-52.5,31.7-52.5,74.1c0,27,8.7,45.3,8.7,45.3s-29.8,132.7-35,156c-10.4,46.3-1.6,103-0.8,108.8
		c0.4,3.4,4.6,4.2,6.5,1.7c2.7-3.7,37.4-48.7,49.2-93.7c3.3-12.7,19.2-78.7,19.2-78.7c9.5,19,37.1,35.7,66.5,35.7
		c87.6,0,147-83.9,147-196.2C2309-1544.3,2240.6-1623.4,2136.6-1623.4z"/>
	<rect x="5807.4" y="1332.6" transform="matrix(0.7071 -0.7071 0.7071 0.7071 712.9809 4536.4199)" width="50" height="150"/>
	<rect x="5790.6" y="1274" transform="matrix(0.7071 -0.7071 0.7071 0.7071 842.2741 4631.3965)" width="442.3" height="50"/>
	<g>
		<g>
			<polygon points="4439,1125 4414,1125 4414,1250 4439,1250 4439,1125 			"/>
		</g>
		<g>
			<polygon points="4539,1225 4414,1225 4414,1250 4539,1250 4539,1225 			"/>
		</g>
		<g>
			<defs>
				<polygon id="SVGID_1_" points="4425,1250 4425,1125 4875,1125 4875,1625 4375,1625 4375,1375 4500,1375.1 4500,1250 				"/>
			</defs>
			<clipPath id="SVGID_2_">
				<use xlink:href="#SVGID_1_"  style="overflow:visible;"/>
			</clipPath>
			<path class="st2" d="M4625,1150c30.4,0,59.8,5.9,87.6,17.7c26.8,11.3,50.9,27.6,71.5,48.2c20.7,20.7,36.9,44.7,48.2,71.5
				c11.7,27.7,17.7,57.2,17.7,87.6s-5.9,59.8-17.7,87.6c-11.3,26.8-27.6,50.9-48.2,71.5c-20.7,20.7-44.7,36.9-71.5,48.2
				c-27.7,11.7-57.2,17.7-87.6,17.7s-59.8-5.9-87.6-17.7c-26.8-11.3-50.9-27.6-71.5-48.2c-20.7-20.7-36.9-44.7-48.2-71.5
				c-11.7-27.7-17.7-57.2-17.7-87.6s5.9-59.8,17.7-87.6c11.3-26.8,27.6-50.9,48.2-71.5c20.7-20.7,44.7-36.9,71.5-48.2
				C4565.2,1155.9,4594.6,1150,4625,1150 M4625,1125c-138.1,0-250,111.9-250,250s111.9,250,250,250s250-111.9,250-250
				S4763.1,1125,4625,1125L4625,1125z"/>
			<polygon class="st3" points="4500,1500 4500,1275 4400,1275 4400,1125 4875,1125 4875,1625 4375,1625 4375,1500 			"/>
		</g>
	</g>
	<g>
		<path d="M4178.7,1200L4000,1343l-178.7-143H4178.7 M4250,1175h-500l250,200L4250,1175L4250,1175z"/>
	</g>
	<polygon points="4250,1175 4250,1575 3750,1575 3750,1375 3775,1375 3775,1550 4225,1550 4225,1175 	"/>
	<path d="M2899.8-1200h-300c-55.2,0-100-44.8-100-100v-150c0-55.2,44.8-100,100-100h300c55.2,0,100,44.8,100,100v150
		C2999.8-1244.8,2955-1200,2899.8-1200z M2762.5-1407.9L2700-1444v72.2v72.2l62.5-36.1l62.5-36.1L2762.5-1407.9z"/>
	<g>
		<rect x="625" y="-895" width="78.9" height="78.9"/>
		<rect x="730.3" y="-789.7" width="78.9" height="78.9"/>
		<rect x="835.5" y="-684.5" width="78.9" height="78.9"/>
		<rect x="940.8" y="-789.7" width="78.9" height="78.9"/>
		<rect x="1046.1" y="-895" width="78.9" height="78.9"/>
	</g>
	<g>
		<rect x="1361.3" y="-579.2" transform="matrix(6.123234e-17 -1 1 6.123234e-17 1940.4736 861)" width="78.9" height="78.9"/>
		<rect x="1466.5" y="-684.5" transform="matrix(6.123234e-17 -1 1 6.123234e-17 2151 861)" width="78.9" height="78.9"/>
		<rect x="1571.8" y="-789.7" transform="matrix(6.123234e-17 -1 1 6.123234e-17 2361.5264 861)" width="78.9" height="78.9"/>
		<rect x="1466.5" y="-895" transform="matrix(6.123234e-17 -1 1 6.123234e-17 2361.5264 650.4737)" width="78.9" height="78.9"/>
		
			<rect x="1361.3" y="-1000.3" transform="matrix(6.123234e-17 -1 1 6.123234e-17 2361.5264 439.9474)" width="78.9" height="78.9"/>
	</g>
	<g>
		<rect x="1875" y="-1000" width="50" height="50"/>
		<rect x="2325" y="-1000" width="50" height="50"/>
		<rect x="1950" y="-925" width="50" height="50"/>
		<rect x="2250" y="-925" width="50" height="50"/>
		<rect x="2025" y="-850" width="50" height="50"/>
		<rect x="2175" y="-850" width="50" height="50"/>
		<rect x="2100" y="-775" width="50" height="50"/>
	</g>
	<rect x="1875" y="1361" class="st0" width="500" height="25"/>
	<rect x="1875" y="1176" class="st0" width="500" height="25"/>
	<rect x="1875" y="1550" class="st0" width="500" height="25"/>
	<rect x="1875" y="236" class="st0" width="500" height="25"/>
	<rect x="1875" y="51" class="st0" width="500" height="25"/>
	<rect x="1875" y="425" class="st0" width="500" height="25"/>
	<rect x="3125" y="-4" class="st4" width="300" height="150"/>
	<g>
		<path d="M3325,25c46.7,0,90.7,18.2,123.7,51.3c33.1,33.1,51.3,77,51.3,123.7s-18.2,90.7-51.3,123.7c-33.1,33.1-77,51.3-123.7,51.3
			s-90.7-18.2-123.7-51.3c-33.1-33.1-51.3-77-51.3-123.7s18.2-90.7,51.3-123.7C3234.3,43.2,3278.3,25,3325,25 M3325,0
			c-110.5,0-200,89.5-200,200s89.5,200,200,200s200-89.5,200-200S3435.5,0,3325,0L3325,0z"/>
		<polygon points="3509.1,365.9 3491.4,383.6 3607.7,499.9 3625.4,482.2 3509.1,365.9 		"/>
	</g>
	<g>
		<defs>
			<rect id="SVGID_3_" x="3124" y="1125" width="425.5" height="125.5"/>
		</defs>
		<clipPath id="SVGID_4_">
			<use xlink:href="#SVGID_3_"  style="overflow:visible;"/>
		</clipPath>
		<g class="st5">
			<g>
				<path d="M3324,1150c46.7,0,90.7,18.2,123.7,51.3c33.1,33.1,51.3,77,51.3,123.7s-18.2,90.7-51.3,123.7
					c-33.1,33.1-77,51.3-123.7,51.3s-90.7-18.2-123.7-51.3c-33.1-33.1-51.3-77-51.3-123.7s18.2-90.7,51.3-123.7
					C3233.3,1168.2,3277.3,1150,3324,1150 M3324,1125c-110.5,0-200,89.5-200,200s89.5,200,200,200s200-89.5,200-200
					S3434.5,1125,3324,1125L3324,1125z"/>
			</g>
			<g>
				<polygon points="3470.6,1453.4 3452.9,1471.1 3606.7,1624.9 3624.4,1607.2 3470.6,1453.4 				"/>
			</g>
		</g>
	</g>
	<g>
		<defs>
			<polygon id="SVGID_5_" points="3624.5,1625.5 3124,1625.5 3124,1375.5 3385.7,1375.5 3409.5,1250 3624,1250 			"/>
		</defs>
		<clipPath id="SVGID_6_">
			<use xlink:href="#SVGID_5_"  style="overflow:visible;"/>
		</clipPath>
		<g class="st6">
			<g>
				<path d="M3324,1150c46.7,0,90.7,18.2,123.7,51.3c33.1,33.1,51.3,77,51.3,123.7s-18.2,90.7-51.3,123.7
					c-33.1,33.1-77,51.3-123.7,51.3s-90.7-18.2-123.7-51.3c-33.1-33.1-51.3-77-51.3-123.7s18.2-90.7,51.3-123.7
					C3233.3,1168.2,3277.3,1150,3324,1150 M3324,1125c-110.5,0-200,89.5-200,200s89.5,200,200,200s200-89.5,200-200
					S3434.5,1125,3324,1125L3324,1125z"/>
			</g>
			<g>
				<polygon points="3470.6,1453.4 3452.9,1471.1 3606.7,1624.9 3624.4,1607.2 3470.6,1453.4 				"/>
			</g>
		</g>
	</g>
	<g>
		<polygon points="2575,1225 2575,1250 2925,1250 2925,1599.2 2575,1600.2 2575,1375.2 2550,1375.2 2550,1625.2 2950,1624.2 
			2950,1225 		"/>
		<g>
			<defs>
				<rect id="SVGID_7_" x="2625" y="1125" width="250" height="125"/>
			</defs>
			<clipPath id="SVGID_8_">
				<use xlink:href="#SVGID_7_"  style="overflow:visible;"/>
			</clipPath>
			<g class="st7">
				<path d="M2750,1150c41.4,0,75,33.6,75,75s-33.6,75-75,75s-75-33.6-75-75S2708.6,1150,2750,1150 M2750,1125
					c-55.2,0-100,44.8-100,100s44.8,100,100,100s100-44.8,100-100S2805.2,1125,2750,1125L2750,1125z"/>
			</g>
		</g>
	</g>
	<g>
		<polygon points="2550,150 2550,175 2925,175 2925,474.2 2575,475.2 2575,150 2550,150 2550,500.2 2950,499.2 2950,150 		"/>
		<g>
			<defs>
				<rect id="SVGID_9_" x="2625" width="250" height="100"/>
			</defs>
			<clipPath id="SVGID_10_">
				<use xlink:href="#SVGID_9_"  style="overflow:visible;"/>
			</clipPath>
			<path class="st8" d="M2750,25c41.4,0,75,33.6,75,75s-33.6,75-75,75s-75-33.6-75-75S2708.6,25,2750,25 M2750,0
				c-55.2,0-100,44.8-100,100s44.8,100,100,100s100-44.8,100-100S2805.2,0,2750,0L2750,0z"/>
		</g>
	</g>
	<g>
		<g>
			<path d="M4225,75v350h-450V75H4225 M4250,50h-500v400h500V50L4250,50z"/>
		</g>
		<g>
			<defs>
				<rect id="SVGID_11_" x="3799.5" y="150.5" width="400" height="150"/>
			</defs>
			<clipPath id="SVGID_12_">
				<use xlink:href="#SVGID_11_"  style="overflow:visible;"/>
			</clipPath>
			<polygon class="st9" points="3999.5,291.3 3767.8,111.4 3783.2,91.6 3999.5,259.7 4217.9,91.6 4233.1,111.4 			"/>
		</g>
	</g>
	<g>
		<defs>
			<rect id="SVGID_13_" x="5625" width="500" height="175"/>
		</defs>
		<clipPath id="SVGID_14_">
			<use xlink:href="#SVGID_13_"  style="overflow:visible;"/>
		</clipPath>
		<path class="st10" d="M5974.3,50L6075,191v259.5h-399.6L5675,191l100.7-141H5974.3 M6000,0h-250l-125,175l0.5,325.5H6125V175
			L6000,0L6000,0z"/>
	</g>
	<rect x="5700" y="225" transform="matrix(-1 -1.224647e-16 1.224647e-16 -1 11425 725)" width="25" height="275"/>
	<rect x="6025" y="225" transform="matrix(-1 -1.224647e-16 1.224647e-16 -1 12075 725)" width="25" height="275"/>
	<rect x="5862" y="337" transform="matrix(-1.836970e-16 1 -1 -1.836970e-16 6362 -5387)" width="25" height="301"/>
	<path d="M5250.4,27.5l225.1,113.4V400l-225.9,111.6L5024.5,399V140L5250.4,27.5 M5250.5-0.5l-251,125v290l250,125l251-124v-290
		L5250.5-0.5L5250.5-0.5z"/>
	<polygon points="5250.5,275.8 5019.4,147.4 5031.6,125.6 5250.5,247.2 5469.4,125.6 5481.6,147.4 	"/>
	<rect x="5238" y="250.5" width="25" height="274.5"/>
	<path class="st11" d="M4999.5,124.5"/>
	<g>
		<rect x="4500" y="150" width="375" height="25"/>
		<rect x="4745.3" y="96.5" transform="matrix(0.7071 0.7071 -0.7071 0.7071 1487.6484 -3373.501)" width="141.4" height="25"/>
		<g>
			<rect x="4375" y="250" width="375" height="50"/>
			<rect x="4361.8" y="331.6" transform="matrix(0.7071 0.7071 -0.7071 0.7071 1560.8142 -3054.9714)" width="212.6" height="50"/>
		</g>
	</g>
	<polygon points="5400,300 5350,325 5350,200 5400,175 	"/>
	<g>
		<rect x="4471.2" y="-607.7" transform="matrix(0.7071 0.7071 -0.7071 0.7071 983.6001 -3306.9824)" width="25" height="283"/>
		<rect x="4471.2" y="-425.3" transform="matrix(-0.7071 0.7071 -0.7071 -0.7071 7453.4316 -3654.9507)" width="25" height="283"/>
		<rect x="4721.2" y="-607.7" transform="matrix(0.7071 0.7071 -0.7071 0.7071 1056.8234 -3483.759)" width="25" height="283"/>
		<rect x="4721.2" y="-425.3" transform="matrix(-0.7071 0.7071 -0.7071 -0.7071 7880.208 -3831.7275)" width="25" height="283"/>
	</g>
	<g>
		<g>
			<defs>
				<rect id="SVGID_15_" x="1225" y="250" width="550" height="150"/>
			</defs>
			<clipPath id="SVGID_16_">
				<use xlink:href="#SVGID_15_"  style="overflow:visible;"/>
			</clipPath>
			<g class="st12">
				<path d="M1500,300c38.3,0,75.4,5.6,110.2,16.5c33.3,10.5,63.2,25.4,88.7,44.4c50.6,37.7,78.5,87,78.5,139s-27.9,101.4-78.5,139
					c-25.5,19-55.4,33.9-88.7,44.4c-34.9,11-72,16.5-110.2,16.5s-75.4-5.6-110.2-16.5c-33.3-10.5-63.2-25.4-88.7-44.4
					c-50.6-37.7-78.5-87-78.5-139s27.9-101.4,78.5-139c25.5-19,55.4-33.9,88.7-44.4C1424.6,305.6,1461.7,300,1500,300 M1500,275
					c-167.1,0-302.5,100.7-302.5,225s135.4,225,302.5,225s302.5-100.7,302.5-225S1667.1,275,1500,275L1500,275z"/>
			</g>
		</g>
		<g>
			<g>
				<defs>
					<polygon id="SVGID_17_" points="1575,175 1500,175 1500,75 1425,75 1425,-25 1575,-25 					"/>
				</defs>
				<clipPath id="SVGID_18_">
					<use xlink:href="#SVGID_17_"  style="overflow:visible;"/>
				</clipPath>
				<g class="st13">
					<path d="M1500,25c27.6,0,50,22.4,50,50s-22.4,50-50,50s-50-22.4-50-50S1472.4,25,1500,25 M1500,0c-41.4,0-75,33.6-75,75
						s33.6,75,75,75s75-33.6,75-75S1541.4,0,1500,0L1500,0z"/>
				</g>
			</g>
			<rect x="1489" y="125" width="25" height="75"/>
		</g>
	</g>
	<g>
		<g>
			<g>
				<defs>
					<polygon id="SVGID_19_" points="325,175 250,175 250,75 175,75 175,-25 325,-25 					"/>
				</defs>
				<clipPath id="SVGID_20_">
					<use xlink:href="#SVGID_19_"  style="overflow:visible;"/>
				</clipPath>
				<g class="st14">
					<path d="M250,25c27.6,0,50,22.4,50,50s-22.4,50-50,50s-50-22.4-50-50S222.4,25,250,25 M250,0c-41.4,0-75,33.6-75,75
						s33.6,75,75,75c41.4,0,75-33.6,75-75S291.4,0,250,0L250,0z"/>
				</g>
			</g>
			<rect x="239" y="125" width="25" height="100"/>
		</g>
		<g>
			<defs>
				<rect id="SVGID_21_" x="-49.5" y="223.5" width="199.5" height="177"/>
			</defs>
			<clipPath id="SVGID_22_">
				<use xlink:href="#SVGID_21_"  style="overflow:visible;"/>
			</clipPath>
			<g class="st15">
				<g>
					<polygon points="192.2,235.4 -49.5,374.9 -37,396.6 204.7,257.1 192.2,235.4 					"/>
				</g>
				<g>
					<polygon points="208,235.4 195.5,257.1 437.2,396.6 449.7,374.9 208,235.4 					"/>
				</g>
			</g>
		</g>
		<g>
			<g>
				<g>
					<polygon points="251.4,203.4 238.9,225.1 538.6,396.6 551.1,374.9 251.4,203.4 					"/>
				</g>
			</g>
		</g>
	</g>
	<g>
		<g>
			<g>
				<defs>
					<polygon id="SVGID_23_" points="950,175 875,175 875,75 800,75 800,-25 950,-25 					"/>
				</defs>
				<clipPath id="SVGID_24_">
					<use xlink:href="#SVGID_23_"  style="overflow:visible;"/>
				</clipPath>
				<g class="st16">
					<path d="M875,25c27.6,0,50,22.4,50,50s-22.4,50-50,50s-50-22.4-50-50S847.4,25,875,25 M875,0c-41.4,0-75,33.6-75,75
						s33.6,75,75,75c41.4,0,75-33.6,75-75S916.4,0,875,0L875,0z"/>
				</g>
			</g>
			<rect x="864" y="125" width="25" height="100"/>
		</g>
		<g>
			<defs>
				<rect id="SVGID_25_" x="575.5" y="223.5" width="199.5" height="177"/>
			</defs>
			<clipPath id="SVGID_26_">
				<use xlink:href="#SVGID_25_"  style="overflow:visible;"/>
			</clipPath>
			<g class="st17">
				<g>
					<polygon points="817.2,235.4 575.5,374.9 588,396.6 829.7,257.1 817.2,235.4 					"/>
				</g>
				<g>
					<polygon points="833,235.4 820.5,257.1 1062.2,396.6 1074.7,374.9 833,235.4 					"/>
				</g>
			</g>
		</g>
		<g>
			<defs>
				
					<rect id="SVGID_27_" x="975.5" y="223.5" transform="matrix(-1 -4.491397e-11 4.491397e-11 -1 2150.5 624)" width="199.5" height="177"/>
			</defs>
			<clipPath id="SVGID_28_">
				<use xlink:href="#SVGID_27_"  style="overflow:visible;"/>
			</clipPath>
			<g class="st18">
				<g>
					<polygon points="933.3,235.4 920.8,257.1 1162.5,396.6 1175,374.9 933.3,235.4 					"/>
				</g>
				<g>
					<polygon points="917.5,235.4 675.8,374.9 688.3,396.6 930,257.1 917.5,235.4 					"/>
				</g>
			</g>
		</g>
	</g>
</g>
</svg>
